<svg width="64" height="64" viewBox="0 0 64 64" fill="none" xmlns="http://www.w3.org/2000/svg">
<path d="M40.8387 18.5922L41.3889 4.1791C41.4672 2.12722 39.5074 0.604876 37.5386 1.18833L33.7079 2.3236C31.2936 3.03909 29.7881 5.43828 30.194 7.9234L33.6287 28.9549C33.8545 30.338 35.3961 31.0659 36.6077 30.3616L43.3226 26.4581L44.1177 31.7994C44.2968 33.0026 44.3534 34.221 44.2864 35.4356L44.2156 36.7188C44.0953 38.9007 43.4258 41.0168 42.2691 42.8707L42.1385 43.08C40.6231 45.5088 38.3071 47.3322 35.5905 48.2353C33.4364 48.7283 31.2022 48.759 29.0353 48.3254L28.585 48.2353L26.2579 47.6551C24.1872 47.1388 22.4649 45.7066 21.5796 43.7647L21.2923 42.8784C20.6446 40.8798 21.0188 38.6906 22.2937 37.0207C23.2666 35.7463 24.6824 34.8834 26.261 34.6027L28.7414 34.1616C29.4475 34.036 30.0815 33.6519 30.5197 33.0842C31.5087 31.803 31.2501 29.9589 29.9467 28.9991L25.9988 26.0922C24.1604 24.7385 23.0198 22.6367 22.8867 20.3576L22.7419 17.8771L19.1603 20.4835C17.9145 21.3902 16.1544 20.6067 15.9943 19.0742L15.6452 15.7318L14.0019 17.1262C10.6651 19.9575 8.15716 23.6394 6.7442 27.7812C5.59549 31.1483 5.20215 34.7271 5.5921 38.2633L5.67546 39.0193C6.16414 43.4509 7.71724 47.6986 10.2024 51.4002L10.3701 51.6502C13.1262 55.7554 16.9368 59.0429 21.4018 61.1674L21.817 61.365C25.4575 63.0972 29.4554 63.9457 33.4856 63.8416L34.0528 63.8269C38.7101 63.7066 43.229 62.2182 47.0461 59.5472C51.523 56.4146 54.7817 51.8332 56.2723 46.5765L56.9201 44.2921C57.3169 42.8925 57.6128 41.4662 57.8055 40.0242L59.7783 25.2575C59.8785 24.5074 59.1415 23.9222 58.4336 24.1896L51.4839 26.8156L53.0304 14.6605C53.1296 13.8815 52.3333 13.2975 51.6201 13.626L40.8387 18.5922Z" fill="url(#paint0_linear_215_5)"/>
<defs>
<linearGradient id="paint0_linear_215_5" x1="19.8958" y1="8.69136" x2="60.238" y2="64.2992" gradientUnits="userSpaceOnUse">
<stop stop-color="#FF8A00"/>
<stop offset="1" stop-color="#7A00F4"/>
</linearGradient>
</defs>
</svg>
