<svg width="128" height="128" viewBox="0 0 128 128" fill="none" xmlns="http://www.w3.org/2000/svg">
<path d="M74.7999 64C74.7999 69.9647 69.9646 74.8 63.9999 74.8C58.0353 74.8 53.2 69.9647 53.2 64C53.2 58.0353 58.0353 53.2 63.9999 53.2C69.9646 53.2 74.7999 58.0353 74.7999 64Z" stroke="white" stroke-width="4"/>
<path fill-rule="evenodd" clip-rule="evenodd" d="M64 28L35.1302 42.2605L28 74.3035L47.9785 100H80.0215L100 74.3035L92.8698 42.2605L64 28ZM73.4339 80.34C78.6981 77.0039 82.2058 71.031 82.2058 64.2177C82.2058 64.145 82.2054 64.0725 82.2046 64C82.1301 57.2123 78.5741 51.2822 73.2822 48.0003C70.4981 46.2737 67.2337 45.28 63.7429 45.28C60.4241 45.28 57.3097 46.1782 54.6184 47.7506C49.1087 50.9695 45.3717 57.0137 45.2817 63.9608C45.2805 64.0463 45.28 64.132 45.28 64.2177C45.28 71.1786 48.9415 77.2624 54.3967 80.5532C57.1381 82.207 60.3325 83.1554 63.7429 83.1554C67.2973 83.1554 70.617 82.1252 73.4339 80.34Z" stroke="white" stroke-width="4"/>
</svg>
