<svg width="128" height="128" viewBox="0 0 128 128" fill="none" xmlns="http://www.w3.org/2000/svg">
<path d="M74.759 106C78.7408 106 108.216 96.0859 105.867 64.2546C103.518 32.4232 80.234 22 64.0579 22C47.8818 22 22 36.2546 22 65.0182C22 93.7818 46.1397 106 53.1079 106V97.4688L38.425 83.8545C39.7188 85.0541 43.314 88.969 48.8772 90.7273C48.8772 90.7273 52.1125 92.2545 53.8545 89.7091C55.5965 87.1636 56.0943 83.8545 56.0943 83.8545C43.6408 82.2661 37.1807 71.8909 37.1807 65.0182C37.1807 58.1454 38.0943 56.7286 41.6602 51.2727C41.6602 51.2727 40.6647 40.8363 42.1579 39.8182C43.6511 38.8 53.6056 44.1454 53.6056 44.1454C61.5856 42.1961 66.239 42.3611 74.759 44.1454C74.759 44.1454 84.4647 38.2909 86.2067 39.8182C87.9488 41.3454 86.7045 51.2727 86.7045 51.2727C90.002 56.2212 90.9351 55.8545 90.9351 65.0182C90.9351 74.1818 83.6975 82.0193 72.0215 83.8545C75.358 91.3909 74.759 106 74.759 106Z" stroke="white" stroke-width="4"/>
</svg>
