<svg width="128" height="128" viewBox="0 0 128 128" fill="none" xmlns="http://www.w3.org/2000/svg">
<path d="M81.4433 37.0041H25.4449C22.4907 37.3312 21.9593 38.6018 22.0023 41.8237V81.298C22.0279 87.8552 23.1895 90.3303 29.3464 90.4781H72.0337C79.3778 90.4781 82.3613 88.6417 82.3613 77.3961C97.0495 77.3961 106 65.6915 106 57.4295C106 49.1674 100.679 36.7398 81.4433 37.0041Z" stroke="white" stroke-width="4"/>
<path d="M82.3613 67.0838V47.1171C90.3281 46.9115 95.4429 48.7237 95.6724 56.2972C95.9019 63.8707 91.5085 67.3579 82.3613 67.0838Z" stroke="white" stroke-width="4"/>
<path d="M60.7882 49.3969L52.5261 53.0689L43.8051 49.3969C38.2196 50.5881 36.148 52.2478 35.084 57.659C36.7021 65.9528 41.2975 70.6958 52.5261 79.2321C63.2287 70.8516 68.5922 65.9545 69.5093 57.659C67.8995 53.6112 67.6107 51.0617 60.7882 49.3969Z" stroke="white" stroke-width="4"/>
</svg>
