<svg width="84" height="64" viewBox="0 0 84 64" fill="none" xmlns="http://www.w3.org/2000/svg">
<path fill-rule="evenodd" clip-rule="evenodd" d="M5.27439 5.27442L5.27442 5.25679V4C5.27442 1.79086 7.06528 0 9.27442 0H10.5488H22.3721C24.5812 0 26.3721 1.79086 26.3721 4V6.66667C26.3721 8.87581 24.5812 10.6667 22.3721 10.6667L19.8232 10.6667C17.6141 10.6667 15.8232 12.4575 15.8232 14.6667V24.0589C15.8232 26.045 14.7255 27.7747 13.1037 28.6744C11.8158 29.3888 10.5488 30.5272 10.5488 32V32C10.5488 33.4728 11.8158 34.6112 13.1037 35.3256C14.7255 36.2253 15.8232 37.955 15.8232 39.9411V49.3333C15.8232 51.5425 17.6141 53.3333 19.8232 53.3333H22.3721C24.5812 53.3333 26.3721 55.1242 26.3721 57.3333V60C26.3721 62.2091 24.5812 64 22.3721 64H10.5599L10.5488 64L10.5377 64H9.2744C7.06526 64 5.2744 62.2091 5.2744 60V58.7391L5.27438 58.7256V39.9411V39.9411C5.27438 38.3839 4.14934 36 2.59218 36H1.94164C0.869303 36 0 35.1307 0 34.0584V29.9416C0 28.8693 0.869302 28 1.94164 28H2.59218C4.14934 28 5.27439 25.6161 5.27439 24.0589V24.0589V5.27442ZM73.4512 0H74.7256C76.9347 0 78.7256 1.79086 78.7256 4V5.25221L78.7256 5.27442V24.0589V24.0589C78.7256 25.6161 79.8507 28 81.4078 28H82.0583C83.1307 28 84 28.8693 84 29.9416V34.0584C84 35.1307 83.1307 36 82.0583 36H81.4078C79.8507 36 78.7256 38.3839 78.7256 39.9411V39.9411V58.7256L78.7256 58.7478V60C78.7256 62.2091 76.9347 64 74.7256 64H73.4623L73.4512 64L73.4401 64H61.6279C59.4187 64 57.6279 62.2091 57.6279 60V57.3333C57.6279 55.1242 59.4187 53.3333 61.6279 53.3333H64.1768C66.3859 53.3333 68.1768 51.5425 68.1768 49.3333V39.9411C68.1768 37.955 69.2745 36.2253 70.8963 35.3256C72.1842 34.6112 73.4512 33.4728 73.4512 32V32C73.4512 30.5272 72.1842 29.3888 70.8963 28.6744C69.2745 27.7747 68.1768 26.045 68.1768 24.0589V14.6667C68.1768 12.4575 66.3859 10.6667 64.1768 10.6667H61.6279C59.4187 10.6667 57.6279 8.8758 57.6279 6.66667V4C57.6279 1.79086 59.4187 0 61.6279 0H73.4512ZM41.337 12.7845C39.2932 10.8252 35.9046 11.5917 34.8572 14.2501L32.1095 21.2246C31.7686 22.0898 31.1406 22.8121 30.3324 23.2686L23.7862 26.9657C21.3563 28.338 21.0083 31.7087 23.1103 33.5124L28.9297 38.5057C29.6133 39.0923 30.0765 39.8962 30.2436 40.7861L31.6618 48.3386C32.1826 51.1119 35.3267 52.4619 37.7097 50.9354L43.9164 46.9595C44.7094 46.4515 45.6524 46.2382 46.5806 46.3569L53.8457 47.2856C56.635 47.6422 58.931 45.0618 58.2621 42.3219L56.4405 34.8607C56.2259 33.9816 56.3152 33.0527 56.6938 32.2259L59.9168 25.1872C61.081 22.6448 59.3784 19.7379 56.6099 19.5414L49.1516 19.0119C48.2309 18.9466 47.364 18.5623 46.6989 17.9247L41.337 12.7845Z" fill="url(#paint0_linear_61_56)"/>
<defs>
<linearGradient id="paint0_linear_61_56" x1="106" y1="-36" x2="-5.49999" y2="69.5" gradientUnits="userSpaceOnUse">
<stop stop-color="#FFF500"/>
<stop offset="1" stop-color="#FF5C00"/>
</linearGradient>
</defs>
</svg>
