<svg width="62" height="70" viewBox="0 0 62 70" fill="none" xmlns="http://www.w3.org/2000/svg">
<path d="M40.6795 11.6089L40.868 6.67889C41.0311 2.41679 36.9615 -0.746409 32.8714 0.463275C29.8591 1.35418 27.9805 4.3473 28.4878 7.4473L31.8365 27.911C32.3017 30.7537 35.469 32.2505 37.9606 30.805C40.4736 29.3471 43.665 30.8829 44.0937 33.7564L44.3223 35.289C44.374 35.6355 44.3903 35.9863 44.3709 36.3361L44.2071 39.3019C44.0712 41.7608 43.3154 44.1453 42.0099 46.2335L41.8685 46.4597C40.158 49.1956 37.5463 51.2487 34.4838 52.2647C32.0554 52.8194 29.5372 52.8539 27.0945 52.3661L26.5868 52.2647L23.9578 51.6106C21.627 51.0306 19.6877 49.42 18.6897 47.2353L18.3679 46.2445C17.6367 43.9926 18.0589 41.5252 19.4975 39.6447C20.5925 38.2132 22.1845 37.2443 23.9591 36.9294L26.7671 36.4311C27.5605 36.2903 28.2731 35.8592 28.7661 35.2218C29.8812 33.7801 29.5898 31.7029 28.1211 30.6236L23.6695 27.3523C21.5985 25.8304 20.3131 23.465 20.1631 20.8993L20 18.1117L14.2018 22.3227C13.5789 22.7751 12.6998 22.3834 12.6196 21.6177L12 15.6983L10.1389 17.2743C6.38322 20.4547 3.5594 24.5931 1.96753 29.2499C0.671801 33.0403 0.228096 37.0699 0.668034 41.0515L0.761596 41.8982C1.31233 46.8826 3.06202 51.6594 5.86104 55.8202L6.04535 56.0941C9.15767 60.7207 13.4579 64.4242 18.4948 66.816L18.9558 67.0349C23.0608 68.9842 27.5673 69.939 32.1102 69.8218L32.7657 69.8049C38.0062 69.6698 43.0914 67.9977 47.3893 64.9963C52.441 61.4686 56.1197 56.3049 57.8037 50.378L58.9621 46.3009C59.1205 45.7435 59.2386 45.1754 59.3155 44.601L61.3169 29.6501C61.6257 27.3436 59.3604 25.5429 57.1829 26.364C55.0135 27.1821 52.7532 25.3969 53.0465 23.0969L53.3761 20.5112C53.8221 17.0133 50.2481 14.389 47.0442 15.8619C44.0005 17.2611 40.5514 14.9564 40.6795 11.6089Z" fill="url(#paint0_linear_28_4)"/>
<defs>
<linearGradient id="paint0_linear_28_4" x1="16.7917" y1="7.77778" x2="62.1481" y2="70.4236" gradientUnits="userSpaceOnUse">
<stop stop-color="#FF8A00"/>
<stop offset="1" stop-color="#7A00F4"/>
</linearGradient>
</defs>
</svg>
