<svg width="92" height="92" viewBox="0 0 92 92" fill="none" xmlns="http://www.w3.org/2000/svg">
<path d="M55.6795 23.6089L55.868 18.6789C56.0311 14.4168 51.9615 11.2536 47.8714 12.4633C44.8591 13.3542 42.9805 16.3473 43.4878 19.4473L46.8365 39.911C47.3017 42.7537 50.469 44.2505 52.9606 42.805C55.4736 41.3471 58.665 42.8829 59.0937 45.7564L59.3223 47.289C59.374 47.6355 59.3903 47.9863 59.3709 48.3361L59.2071 51.3019C59.0712 53.7608 58.3154 56.1453 57.0099 58.2335L56.8685 58.4597C55.158 61.1956 52.5463 63.2487 49.4838 64.2647C47.0554 64.8194 44.5372 64.8539 42.0945 64.3661L41.5868 64.2647L38.9578 63.6106C36.627 63.0306 34.6877 61.42 33.6897 59.2353L33.3679 58.2445C32.6367 55.9926 33.0589 53.5252 34.4975 51.6447C35.5925 50.2132 37.1845 49.2443 38.9591 48.9294L41.7671 48.4311C42.5605 48.2903 43.2731 47.8592 43.7661 47.2218C44.8812 45.7801 44.5898 43.7029 43.1211 42.6236L38.6695 39.3523C36.5985 37.8304 35.3131 35.465 35.1631 32.8993L35 30.1117L29.2018 34.3227C28.5789 34.7751 27.6998 34.3834 27.6196 33.6177L27 27.6983L25.1389 29.2743C21.3832 32.4547 18.5594 36.5931 16.9675 41.2499C15.6718 45.0403 15.2281 49.0699 15.668 53.0515L15.7616 53.8982C16.3123 58.8826 18.062 63.6594 20.861 67.8202L21.0454 68.0941C24.1577 72.7207 28.4579 76.4242 33.4948 78.816L33.9558 79.0349C38.0608 80.9842 42.5673 81.939 47.1102 81.8218L47.7657 81.8049C53.0062 81.6698 58.0914 79.9977 62.3893 76.9963C67.441 73.4686 71.1197 68.3049 72.8037 62.378L73.9621 58.3009C74.1205 57.7435 74.2386 57.1754 74.3155 56.601L76.3169 41.6501C76.6257 39.3436 74.3604 37.5429 72.1829 38.364C70.0135 39.1821 67.7532 37.3969 68.0465 35.0969L68.3761 32.5112C68.8221 29.0133 65.2481 26.389 62.0442 27.8619C59.0005 29.2611 55.5514 26.9564 55.6795 23.6089Z" fill="url(#paint0_linear_28_3)"/>
<defs>
<linearGradient id="paint0_linear_28_3" x1="31.7917" y1="19.7778" x2="77.1481" y2="82.4236" gradientUnits="userSpaceOnUse">
<stop stop-color="#FF8A00"/>
<stop offset="1" stop-color="#7A00F4"/>
</linearGradient>
</defs>
</svg>
