<svg width="128" height="128" viewBox="0 0 128 128" fill="none" xmlns="http://www.w3.org/2000/svg">
<path d="M52.4056 32C52.4056 32 42.7972 32 35.1105 36.8855C27.4238 41.771 19.737 81.4709 22.6196 85.2519C25.5022 89.033 43.7581 96 43.7581 96L48.0818 88.6718L41.356 85.2519C41.356 85.2519 41.8363 83.7863 42.7972 83.7863C43.2823 83.7863 53.9291 88.1832 64.4162 88.1832C74.703 88.1832 84.8361 83.7863 85.0741 83.7863C85.5546 83.7863 86.5153 85.2519 86.5153 85.2519L79.7895 88.6718L84.5937 96C84.5937 96 101.889 88.6717 105.252 85.2519C108.615 81.8322 99.9669 40.7938 92.7608 36.8855C85.5546 32.9772 75.4657 32 75.4657 32L73.544 36.3969L63.9358 35.9086L54.3273 36.3969C54.3274 36.8855 52.4056 32 52.4056 32Z" stroke="white" stroke-width="4"/>
<path d="M42.3169 66.6872C42.3169 66.6872 42.3169 58.3819 50.0036 58.3819C57.6903 58.3819 57.6903 66.6872 57.6903 66.6872C57.6903 66.6872 58.6512 75.9697 50.0036 75.9697C41.3561 75.9697 42.3169 66.6872 42.3169 66.6872Z" stroke="white" stroke-width="4"/>
<path d="M70.1812 66.6872C70.1812 66.6872 70.1812 58.3819 77.8679 58.3819C85.5546 58.3819 85.5546 66.6872 85.5546 66.6872C85.5546 66.6872 86.035 75.4811 77.8679 75.4811C69.7008 75.4811 70.1812 66.6872 70.1812 66.6872Z" stroke="white" stroke-width="4"/>
</svg>
